<svg xmlns="http://www.w3.org/2000/svg" viewBox="0 0 64 64" width="64" height="64">
<defs><linearGradient id="g" x1="0" y1="0" x2="1" y2="1"><stop offset="0" stop-color="#a04a31"></stop><stop offset="1" stop-color="#91487d"></stop></linearGradient></defs>
<rect width="64" height="64" rx="15" fill="url(#g)"></rect>
<path d="M14.09 45.05L9.17 45.05L9.17 41.81L13.67 41.81Q14.99 41.81 15.61 41.21Q16.22 40.61 16.22 39.23L16.22 39.23L16.22 27.71L9.32 27.71L9.32 24.47L20.3 24.47L20.3 39.35Q20.3 42.14 18.74 43.6Q17.18 45.05 14.09 45.05L14.09 45.05ZM20.3 22.49L16.16 22.49L16.16 18.95L20.3 18.95L20.3 22.49ZM30.75 40.55L26.7 40.55L26.7 27.71L22.65 27.71L22.65 24.47L26.7 24.47L26.7 24.02Q26.7 21.59 27.86 20.42Q29.01 19.25 31.5 19.25L31.5 19.25L36.81 19.25L36.81 22.49L32.43 22.49Q31.56 22.49 31.16 22.9Q30.75 23.3 30.75 24.05L30.75 24.05L30.75 24.47L36.69 24.47L36.69 27.71L30.75 27.71L30.75 40.55ZM43.61 40.55L39.53 40.55L39.53 19.25L43.61 19.25L43.61 31.49L49.73 24.47L54.56 24.47L48.44 31.34L54.83 40.55L50.18 40.55L45.77 33.98L43.61 36.35L43.61 40.55Z" fill="#f4f4f1"></path>
</svg>
